<svg xmlns="http://www.w3.org/2000/svg" fill="none" viewBox="0 0 24 24">
  <path d="M1 1h22v22H1V1z" fill="#BFC9C2"/>
  <path d="M1 1h22v22H1V1z" fill="#000" fill-opacity=".2"/>
  <path d="M12 7a.625.625 0 00-.625.625v3.75h-3.75a.625.625 0 100 1.25h3.75v3.75a.625.625 0 101.25 0v-3.75h3.75a.625.625 0 100-1.25h-3.75v-3.75A.625.625 0 0012 7z" fill="#fff"/>
  <path d="M1 1h22v22H1V1z" stroke="#BACFBF" stroke-width="2"/>
  <path d="M1 1h22v22H1V1z" stroke="#000" stroke-opacity=".6" stroke-width="2"/>
</svg>
